<svg width="889" height="596" viewBox="0 0 889 596" fill="none" xmlns="http://www.w3.org/2000/svg">
<g clip-path="url(#clip0_181_1015)">
<g clip-path="url(#clip1_181_1015)">
<path d="M387.457 439.674C311.494 482.449 354.27 587.913 379.345 592.338C398.658 595.746 462.149 593.792 492.921 592.338L731.134 416.074L591.745 396.899C548.97 396.899 448.228 405.454 387.457 439.674Z" fill="white"/>
<path d="M492.921 592.338C491.822 592.393 494.111 592.281 492.921 592.338ZM492.921 592.338C462.149 593.792 398.658 595.746 379.345 592.338C354.27 587.913 311.494 482.449 387.457 439.674C448.228 405.454 548.97 396.899 591.745 396.899L731.134 416.074L492.921 592.338Z" stroke="black" stroke-width="2.91102"/>
<path d="M408.106 454.152C460.616 444.122 503.244 474.965 517.994 491.64C520.458 488.195 523.122 484.789 525.998 481.44C521.464 461.527 433.181 440.14 408.106 454.152Z" fill="#000001"/>
<path d="M487.596 594.52C489.46 594.439 491.239 594.358 492.92 594.278L687.486 450.312C678.915 447.413 656.823 438.494 637.029 426.009C502.733 441.923 481.451 544.981 487.596 594.52Z" fill="#0E1729"/>
<path d="M709.745 594.277C806.357 563.302 731.132 423.176 731.132 418.014L694.994 413.042C510.913 424.405 483.576 538.6 492.918 594.277L523.984 850.191H604.037L610.919 594.277H709.745Z" fill="white" stroke="black" stroke-width="2.91102"/>
<path d="M591.745 541.178C603.545 552.978 609.446 581.495 610.921 594.278H621.983C619.033 579.774 608.855 548.848 591.745 541.178Z" fill="#000001"/>
<path d="M606.714 147.088C602.83 142.143 592.73 126.958 583.407 105.77C585.526 103.297 589.551 95.8104 588.704 85.6398C577.686 83.9447 571.009 60.2134 569.048 48.5596C583.679 40.4435 571.212 18.7929 575.991 17.8366C581.288 16.7766 595.061 22.0738 595.061 35.8464C595.061 49.619 618.657 43.118 624.725 40.0841C639.556 32.6681 634.26 50.6796 627.903 67.63C624.513 73.5628 636.378 84.9341 642.735 89.8781C644.429 106.829 629.315 132.962 621.546 143.909C622.606 175.692 622.818 239.258 615.19 239.258C610.105 229.088 607.421 173.573 606.714 147.088Z" fill="white" stroke="black" stroke-width="1.94068"/>
<path d="M597.177 50.6725C595.411 52.4383 592.939 57.4529 597.177 63.3858" stroke="#241715" stroke-width="0.970341"/>
<path d="M605.652 66.5718C604.946 70.4564 601.838 76.3186 595.058 68.6907" stroke="#241715" stroke-width="0.970341"/>
<path d="M628.96 53.8538C630.372 49.9692 632.138 42.4119 627.9 43.2594" stroke="#241715" stroke-width="0.970341"/>
<path d="M587.572 97.2916C588.506 94.0569 589.075 90.1066 588.702 85.6383C594.573 88.817 604.592 89.8765 625.781 75.0435C626.627 86.0616 600.661 94.4664 587.572 97.2916Z" fill="black"/>
<path d="M641.674 17.8356C649.09 35.846 632.139 60.213 627.901 67.629C634.258 50.6786 638.495 32.6671 624.723 40.0832C618.75 43.2994 595.059 49.6181 595.059 35.8454C595.059 22.0728 581.286 16.7756 575.989 17.8356C571.21 18.7919 583.677 40.4426 569.047 48.5587C567.46 49.4386 565.556 50.1594 563.276 50.6775C568.573 43.2615 566.454 44.3209 562.216 26.3105C557.979 8.30016 577.049 4.06296 595.059 1.9441C613.069 -0.174772 634.258 -0.174772 641.674 17.8356Z" fill="black"/>
<path d="M741.26 132.256C727.699 114.457 669.924 96.5883 642.732 89.8785C644.427 106.829 629.313 132.962 621.544 143.91C622.604 175.693 622.815 239.259 615.188 239.259C610.102 229.088 607.418 173.574 606.712 147.088C602.827 142.144 592.728 126.959 583.405 105.77C581.286 112.127 524.076 155.563 514.541 169.336C505.006 183.109 501.828 315.538 501.828 327.192C501.828 338.846 497.59 418.303 532.552 418.303C560.521 418.303 674.869 422.188 732.784 423.6C741.26 333.901 754.82 150.054 741.26 132.256Z" fill="black"/>
<path d="M501.831 327.185C559.747 315.178 675.578 301.971 675.578 345.196C675.578 388.42 621.9 412.849 595.061 419.659M675.578 99.3068C668.515 102.518 653.542 117.629 650.152 152.379C645.914 195.815 632.311 210.647 621.291 210.647M610.477 212.766C601.454 217.71 581.712 221.454 574.932 196.875C566.457 166.151 548.774 149.2 529.011 154.497M707.361 111.061C705.242 110.165 671.341 133.309 668.162 186.28C664.984 239.252 631.082 338.839 561.159 285.867C534.672 259.381 509.151 242.784 504.865 244.549M583.408 419.339C592.942 410.163 609.47 388.844 599.299 376.979C589.128 365.113 533.497 381.216 506.953 390.751M746.348 159.795C723.464 173.92 681.299 218.911 695.708 285.867C708.421 324.007 731.653 320.122 741.68 313.413M737.847 365.325C724.153 365.505 698.038 377.254 703.124 422.805" stroke="white" stroke-width="0.970341"/>
<path d="M615.188 418.293V240.308" stroke="#027269" stroke-width="0.970341"/>
<path d="M615.824 416.56L610.617 377.847C598.777 379.995 574.119 382.076 555.071 383.881C535.13 385.771 530.105 396.241 543.49 399.585C536.489 398.711 528.65 408.364 539.822 412.686C531.627 415.597 547.836 418.845 555.782 418.861C551.234 419.548 543.349 420.815 544.421 425.634C545.493 430.452 592.469 421.592 615.824 416.56Z" fill="white"/>
<path d="M615.824 416.561L610.617 377.848C607.863 378.348 604.415 378.844 600.505 379.334L588.66 421.952C598.612 420.142 608.409 418.159 615.824 416.561Z" fill="black"/>
<path d="M556.106 419.146L572.58 414.509" stroke="black" stroke-width="0.970341"/>
<path d="M543.596 408.801L572.476 405.295" stroke="black" stroke-width="0.970341"/>
<path d="M543.491 399.584L572.988 394.482" stroke="black" stroke-width="0.970341"/>
<path d="M772.692 382.565C775.255 341.991 778.054 137.522 732.286 126.5C679.382 113.759 680.076 308.755 703.043 353.24L595.016 364.222L605.152 431.623C657.673 427.955 768.449 449.703 772.692 382.565Z" fill="black"/>
<path d="M732.285 126.499C679.382 113.759 680.075 308.754 703.043 353.24L595.015 364.222" stroke="white" stroke-width="0.970341"/>
<path d="M754.322 155.883C737.975 157.661 701.645 167.099 692.733 189.221M764.493 191.481C749.761 197.925 715.271 219.617 710.92 241.885C706.57 264.152 752.646 256.634 771.274 252.505M772.404 291.493C756.92 298.722 702.644 303.52 690.473 286.973M772.968 360.993C757.111 351.37 711.46 332.161 699.514 339.522M656.571 357.603C649.79 372.294 660.409 426.315 690.473 432.189" stroke="white" stroke-width="0.970341"/>
<path d="M309.324 280.458H491.26C494.447 280.458 497.311 282.407 498.481 285.372L552.515 422.342C553.685 425.307 556.548 427.256 559.736 427.256H701.251C703.854 427.256 705.964 429.366 705.964 431.969C705.964 434.573 703.854 436.683 701.251 436.683H365.118C361.935 436.683 359.075 434.74 357.902 431.782L302.107 291.082C300.087 285.986 303.842 280.458 309.324 280.458Z" fill="white" stroke="black" stroke-width="2.91102"/>
<path d="M497.651 283.129L557.502 427.256H553.46C550.326 427.256 547.499 425.371 546.294 422.477L489.65 286.456C488.462 283.603 490.559 280.458 493.65 280.458C495.401 280.458 496.98 281.512 497.651 283.129Z" fill="black"/>
<path d="M357.902 431.782L302.107 291.082C300.087 285.986 303.842 280.458 309.324 280.458H323.352C324.507 280.458 325.643 280.716 326.692 281.199C331.658 283.486 339.954 287.082 353.731 294.043C399.822 317.331 405.644 366.818 395.941 391.077C388.074 410.743 492.053 431.071 532.905 436.683H365.118C361.935 436.683 359.075 434.74 357.902 431.782Z" fill="black"/>
<ellipse cx="11.5736" cy="13.3097" rx="11.5736" ry="13.3097" transform="matrix(-0.936312 0.351169 0.351169 0.936312 426.862 328.975)" fill="black"/>
</g>
</g>
<defs>
<clipPath id="clip0_181_1015">
<rect width="889" height="596" fill="white"/>
</clipPath>
<clipPath id="clip1_181_1015">
<rect width="889" height="596" fill="white"/>
</clipPath>
</defs>
</svg>
