<svg xmlns="http://www.w3.org/2000/svg"  viewBox="0 0 40 40" width="480px" height="480px" baseProfile="basic"><path fill="#dcd5f2" d="M6.308,9.659C6.241,7.755,7.724,6,9.729,6h20.544c2.005,0,3.488,1.755,3.422,3.659 c-0.064,1.829,0.019,4.198,0.615,6.129c0.598,1.937,1.607,3.162,3.258,3.32v1.784c-1.652,0.157-2.66,1.382-3.258,3.32 c-0.596,1.932-0.679,4.3-0.615,6.129C33.761,32.245,32.278,34,30.273,34H9.729c-2.005,0-3.488-1.755-3.422-3.659 c0.064-1.829-0.019-4.198-0.615-6.129c-0.598-1.937-1.609-3.162-3.261-3.32v-1.784c1.652-0.157,2.663-1.382,3.261-3.32 C6.289,13.857,6.371,11.488,6.308,9.659z"/><path fill="#8b75a1" d="M30.273,34.5H9.729c-1.048,0-2.031-0.421-2.77-1.186c-0.771-0.798-1.19-1.888-1.152-2.991 c0.058-1.656,0.002-4.036-0.593-5.964c-0.577-1.871-1.503-2.843-2.831-2.969c-0.256-0.024-0.452-0.24-0.452-0.498v-1.785 c0-0.258,0.196-0.474,0.452-0.498c1.328-0.126,2.254-1.098,2.831-2.969c0.595-1.928,0.65-4.308,0.593-5.964l0,0 C5.77,8.573,6.189,7.483,6.96,6.686C7.698,5.921,8.682,5.5,9.729,5.5h20.544c1.048,0,2.031,0.421,2.77,1.186 c0.771,0.798,1.19,1.888,1.152,2.991c-0.059,1.655-0.003,4.034,0.593,5.964c0.586,1.897,1.484,2.841,2.828,2.969 c0.256,0.024,0.452,0.24,0.452,0.498v1.785c0,0.258-0.196,0.474-0.452,0.498c-1.344,0.128-2.242,1.071-2.828,2.969 c-0.596,1.93-0.651,4.309-0.593,5.964c0.038,1.104-0.382,2.193-1.152,2.991C32.305,34.079,31.321,34.5,30.273,34.5z M2.932,20.464 c1.513,0.324,2.601,1.533,3.238,3.601c0.636,2.062,0.697,4.561,0.638,6.294c-0.029,0.833,0.288,1.657,0.871,2.261 C8.228,33.188,8.955,33.5,9.729,33.5h20.544c0.774,0,1.502-0.313,2.051-0.881c0.583-0.604,0.9-1.428,0.871-2.261 c-0.061-1.732,0-4.231,0.638-6.294c0.638-2.067,1.725-3.276,3.235-3.601v-0.928c-1.511-0.324-2.598-1.533-3.235-3.601 c-0.638-2.063-0.698-4.562-0.638-6.294c0.029-0.833-0.288-1.657-0.871-2.261C31.775,6.813,31.048,6.5,30.273,6.5H9.729 c-0.774,0-1.502,0.313-2.051,0.881c-0.583,0.604-0.9,1.428-0.871,2.261l0,0c0.06,1.733-0.002,4.232-0.638,6.294 c-0.638,2.067-1.726,3.276-3.238,3.601V20.464z"/><g><path fill="#fff" d="M22.53,19.559v-0.023c1.526-0.264,2.717-1.694,2.717-3.27c0-1.114-0.428-2.057-1.239-2.728 c-0.808-0.669-1.941-1.022-3.278-1.022h-6.124v14.961h6.156c1.6,0,2.927-0.391,3.84-1.13c0.913-0.74,1.396-1.817,1.396-3.115 C25.998,21.272,24.606,19.799,22.53,19.559z M19.662,18.853h-2.62v-4.379h3.117c1.71,0,2.651,0.75,2.651,2.112 C22.811,18.048,21.692,18.853,19.662,18.853z M17.043,20.687h3.095c2.236,0,3.37,0.808,3.37,2.401 c0,1.591-1.118,2.432-3.233,2.432h-3.233V20.687z"/><path fill="#8b75a1" d="M20.762,27.978h-6.655V12.017h6.624c1.454,0,2.698,0.393,3.597,1.136 c0.929,0.77,1.42,1.846,1.42,3.114c0,1.277-0.688,2.479-1.712,3.179c1.517,0.665,2.463,2.062,2.463,3.787 c0,1.454-0.547,2.666-1.582,3.504C23.914,27.548,22.478,27.978,20.762,27.978z M15.106,26.978h5.655 c1.484,0,2.703-0.353,3.525-1.019c0.792-0.642,1.211-1.584,1.211-2.727c0-1.718-1.188-2.965-3.025-3.177l-0.442-0.052v-0.889 l0.415-0.072c1.291-0.223,2.302-1.442,2.302-2.776c0-0.961-0.365-1.771-1.057-2.344c-0.718-0.593-1.741-0.906-2.96-0.906h-5.624 V26.978z M20.275,26.021h-3.732v-5.834h3.595c3.198,0,3.87,1.578,3.87,2.901C24.008,24.184,23.522,26.021,20.275,26.021z M17.543,25.021h2.732c2.732,0,2.732-1.455,2.732-1.933c0-0.816-0.298-1.901-2.87-1.901h-2.595V25.021z M19.662,19.354h-3.119 v-5.38h3.616c1.974,0,3.151,0.977,3.151,2.612C23.311,18.345,21.98,19.354,19.662,19.354z M17.543,18.354h2.119 c1.758,0,2.648-0.595,2.648-1.768c0-1.07-0.724-1.612-2.151-1.612h-2.616V18.354z"/></g></svg>